<mxGraphModel dx="1822" dy="905" grid="1" gridSize="10" guides="1" tooltips="1" connect="1" arrows="1" fold="1" page="0" pageScale="1" pageWidth="827" pageHeight="1169" math="0" shadow="0">
  <root>
    <mxCell id="0" />
    <mxCell id="1" parent="0" />
    <mxCell id="L_ydnOwxpjcya38-qy1h-1" value="GNSS Receiver&lt;br&gt;(e.g., SBG Ellipse D)" style="rounded=1;whiteSpace=wrap;html=1;" parent="1" vertex="1">
      <mxGeometry x="40" y="130" width="210" height="120" as="geometry" />
    </mxCell>
    <mxCell id="L_ydnOwxpjcya38-qy1h-2" value="Client on Computer&lt;br&gt;(e.g., BNC on Linux or Windows)" style="rounded=1;whiteSpace=wrap;html=1;" parent="1" vertex="1">
      <mxGeometry x="-310" y="410" width="220" height="120" as="geometry" />
    </mxCell>
    <mxCell id="L_ydnOwxpjcya38-qy1h-4" value="Antenna" style="ellipse;whiteSpace=wrap;html=1;" parent="1" vertex="1">
      <mxGeometry x="250" y="60" width="120" height="60" as="geometry" />
    </mxCell>
    <mxCell id="L_ydnOwxpjcya38-qy1h-5" value="Antenna" style="ellipse;whiteSpace=wrap;html=1;" parent="1" vertex="1">
      <mxGeometry x="-80" y="60" width="120" height="60" as="geometry" />
    </mxCell>
    <mxCell id="L_ydnOwxpjcya38-qy1h-6" value="" style="endArrow=none;html=1;exitX=0;exitY=0.5;exitDx=0;exitDy=0;entryX=0.5;entryY=1;entryDx=0;entryDy=0;" parent="1" source="L_ydnOwxpjcya38-qy1h-1" target="L_ydnOwxpjcya38-qy1h-5" edge="1">
      <mxGeometry width="50" height="50" relative="1" as="geometry">
        <mxPoint x="180" y="290" as="sourcePoint" />
        <mxPoint x="230" y="240" as="targetPoint" />
        <Array as="points">
          <mxPoint x="-20" y="190" />
        </Array>
      </mxGeometry>
    </mxCell>
    <mxCell id="L_ydnOwxpjcya38-qy1h-7" value="" style="endArrow=none;html=1;entryX=0.5;entryY=1;entryDx=0;entryDy=0;exitX=1;exitY=0.5;exitDx=0;exitDy=0;" parent="1" source="L_ydnOwxpjcya38-qy1h-1" target="L_ydnOwxpjcya38-qy1h-4" edge="1">
      <mxGeometry width="50" height="50" relative="1" as="geometry">
        <mxPoint x="180" y="290" as="sourcePoint" />
        <mxPoint x="230" y="240" as="targetPoint" />
        <Array as="points">
          <mxPoint x="310" y="190" />
        </Array>
      </mxGeometry>
    </mxCell>
    <mxCell id="L_ydnOwxpjcya38-qy1h-8" value="2 Port RS232 to USB Adapter" style="rounded=1;whiteSpace=wrap;html=1;" parent="1" vertex="1">
      <mxGeometry x="40" y="310" width="210" height="50" as="geometry" />
    </mxCell>
    <mxCell id="L_ydnOwxpjcya38-qy1h-9" value="" style="endArrow=none;html=1;entryX=0.5;entryY=1;entryDx=0;entryDy=0;exitX=0.25;exitY=0;exitDx=0;exitDy=0;" parent="1" source="L_ydnOwxpjcya38-qy1h-8" target="L_ydnOwxpjcya38-qy1h-1" edge="1">
      <mxGeometry width="50" height="50" relative="1" as="geometry">
        <mxPoint x="180" y="290" as="sourcePoint" />
        <mxPoint x="230" y="240" as="targetPoint" />
        <Array as="points">
          <mxPoint x="93" y="290" />
          <mxPoint x="145" y="290" />
        </Array>
      </mxGeometry>
    </mxCell>
    <mxCell id="L_ydnOwxpjcya38-qy1h-10" value="&quot;Main&quot; Port" style="endArrow=none;html=1;entryX=0.5;entryY=1;entryDx=0;entryDy=0;exitX=0.75;exitY=0;exitDx=0;exitDy=0;" parent="1" source="L_ydnOwxpjcya38-qy1h-8" target="L_ydnOwxpjcya38-qy1h-1" edge="1">
      <mxGeometry x="0.646" width="50" height="50" relative="1" as="geometry">
        <mxPoint x="102.5" y="320" as="sourcePoint" />
        <mxPoint x="155" y="260" as="targetPoint" />
        <Array as="points">
          <mxPoint x="198" y="290" />
          <mxPoint x="145" y="290" />
        </Array>
        <mxPoint as="offset" />
      </mxGeometry>
    </mxCell>
    <mxCell id="L_ydnOwxpjcya38-qy1h-12" value="/dev/ttyUSB_SBG" style="endArrow=none;html=1;entryX=0.5;entryY=1;entryDx=0;entryDy=0;exitX=1;exitY=0.25;exitDx=0;exitDy=0;" parent="1" source="L_ydnOwxpjcya38-qy1h-2" target="L_ydnOwxpjcya38-qy1h-8" edge="1">
      <mxGeometry x="-0.7333" width="50" height="50" relative="1" as="geometry">
        <mxPoint x="180" y="290" as="sourcePoint" />
        <mxPoint x="230" y="240" as="targetPoint" />
        <Array as="points">
          <mxPoint x="100" y="440" />
          <mxPoint x="100" y="470" />
          <mxPoint x="145" y="470" />
        </Array>
        <mxPoint as="offset" />
      </mxGeometry>
    </mxCell>
    <mxCell id="L_ydnOwxpjcya38-qy1h-17" value="&lt;span id=&quot;char-node&quot; style=&quot;&quot;&gt;←&lt;/span&gt; NMEA Measurement" style="edgeLabel;html=1;align=center;verticalAlign=middle;resizable=0;points=[];fontFamily=Helvetica;" parent="L_ydnOwxpjcya38-qy1h-12" vertex="1" connectable="0">
      <mxGeometry x="-0.2533" y="1" relative="1" as="geometry">
        <mxPoint x="20" y="-9" as="offset" />
      </mxGeometry>
    </mxCell>
    <mxCell id="L_ydnOwxpjcya38-qy1h-13" value="" style="endArrow=none;html=1;exitX=0.5;exitY=1;exitDx=0;exitDy=0;entryX=1;entryY=0.75;entryDx=0;entryDy=0;" parent="1" source="L_ydnOwxpjcya38-qy1h-8" target="L_ydnOwxpjcya38-qy1h-2" edge="1">
      <mxGeometry width="50" height="50" relative="1" as="geometry">
        <mxPoint x="180" y="290" as="sourcePoint" />
        <mxPoint x="230" y="240" as="targetPoint" />
        <Array as="points">
          <mxPoint x="145" y="470" />
          <mxPoint x="100" y="470" />
          <mxPoint x="100" y="500" />
        </Array>
      </mxGeometry>
    </mxCell>
    <mxCell id="L_ydnOwxpjcya38-qy1h-14" value="/dev/ttyUSB_RTCM" style="edgeLabel;html=1;align=center;verticalAlign=middle;resizable=0;points=[];" parent="L_ydnOwxpjcya38-qy1h-13" vertex="1" connectable="0">
      <mxGeometry x="0.7831" y="-3" relative="1" as="geometry">
        <mxPoint x="9" as="offset" />
      </mxGeometry>
    </mxCell>
    <mxCell id="L_ydnOwxpjcya38-qy1h-15" value="USB" style="edgeLabel;html=1;align=center;verticalAlign=middle;resizable=0;points=[];" parent="L_ydnOwxpjcya38-qy1h-13" vertex="1" connectable="0">
      <mxGeometry x="-0.3253" relative="1" as="geometry">
        <mxPoint x="16" y="-80" as="offset" />
      </mxGeometry>
    </mxCell>
    <mxCell id="L_ydnOwxpjcya38-qy1h-16" value="&lt;span id=&quot;char-node&quot; style=&quot;&quot;&gt;→&lt;/span&gt; RTCM Corrections" style="edgeLabel;html=1;align=center;verticalAlign=middle;resizable=0;points=[];fontFamily=Helvetica;" parent="L_ydnOwxpjcya38-qy1h-13" vertex="1" connectable="0">
      <mxGeometry x="0.04" y="2" relative="1" as="geometry">
        <mxPoint x="-20" y="8" as="offset" />
      </mxGeometry>
    </mxCell>
    <mxCell id="3bp-5YLfHRtIciYgacFQ-1" value="&lt;div&gt;&lt;font&gt;&lt;span id=&quot;char-node&quot;&gt;↑ RTCM Corrections&lt;br&gt;&lt;/span&gt;&lt;/font&gt;&lt;/div&gt;&lt;div&gt;&lt;font&gt;Port B&lt;/font&gt;&lt;/div&gt;" style="edgeLabel;html=1;align=center;verticalAlign=middle;resizable=0;points=[];fontFamily=Helvetica;" parent="1" vertex="1" connectable="0">
      <mxGeometry x="249.99999999999977" y="290" as="geometry">
        <mxPoint x="1" y="-1" as="offset" />
      </mxGeometry>
    </mxCell>
    <mxCell id="3bp-5YLfHRtIciYgacFQ-2" value="&lt;div&gt;&lt;span id=&quot;char-node&quot; style=&quot;&quot;&gt;↓&lt;/span&gt; NMEA Measurement&lt;/div&gt;&lt;div&gt;Port A&lt;/div&gt;" style="edgeLabel;html=1;align=center;verticalAlign=middle;resizable=0;points=[];fontFamily=Helvetica;" parent="1" vertex="1" connectable="0">
      <mxGeometry x="189.99999999999977" y="300" as="geometry">
        <mxPoint x="-161" y="-11" as="offset" />
      </mxGeometry>
    </mxCell>
  </root>
</mxGraphModel>
